<mxfile host="app.diagrams.net" modified="2022-05-15T09:08:01.849Z" agent="5.0 (Macintosh; Intel Mac OS X 10_15_7) AppleWebKit/537.36 (KHTML, like Gecko) Chrome/100.0.4896.88 Safari/537.36" etag="TuW73i-hnY0Z-Fjdjglh" version="18.0.4" type="github">
  <diagram id="9SsaOzjTqmTuQHojiQGS" name="ページ1">
    <mxGraphModel dx="1426" dy="794" grid="1" gridSize="10" guides="1" tooltips="1" connect="1" arrows="1" fold="1" page="1" pageScale="1" pageWidth="1169" pageHeight="827" math="0" shadow="0">
      <root>
        <mxCell id="0" />
        <mxCell id="1" parent="0" />
        <mxCell id="_DxccNaKRBvqQ13TV_rj-8" value="AWS" style="sketch=0;outlineConnect=0;gradientColor=none;html=1;whiteSpace=wrap;fontSize=12;fontStyle=0;shape=mxgraph.aws4.group;grIcon=mxgraph.aws4.group_vpc;strokeColor=#879196;fillColor=none;verticalAlign=top;align=left;spacingLeft=30;fontColor=#879196;dashed=0;" vertex="1" parent="1">
          <mxGeometry x="150" y="157" width="900" height="643" as="geometry" />
        </mxCell>
        <mxCell id="_DxccNaKRBvqQ13TV_rj-1" value="VPC" style="sketch=0;outlineConnect=0;gradientColor=none;html=1;whiteSpace=wrap;fontSize=12;fontStyle=0;shape=mxgraph.aws4.group;grIcon=mxgraph.aws4.group_vpc;strokeColor=#879196;fillColor=none;verticalAlign=top;align=left;spacingLeft=30;fontColor=#879196;dashed=0;" vertex="1" parent="1">
          <mxGeometry x="240" y="370" width="740" height="400" as="geometry" />
        </mxCell>
        <mxCell id="_DxccNaKRBvqQ13TV_rj-6" value="Private subnet" style="points=[[0,0],[0.25,0],[0.5,0],[0.75,0],[1,0],[1,0.25],[1,0.5],[1,0.75],[1,1],[0.75,1],[0.5,1],[0.25,1],[0,1],[0,0.75],[0,0.5],[0,0.25]];outlineConnect=0;gradientColor=none;html=1;whiteSpace=wrap;fontSize=12;fontStyle=0;container=1;pointerEvents=0;collapsible=0;recursiveResize=0;shape=mxgraph.aws4.group;grIcon=mxgraph.aws4.group_security_group;grStroke=0;strokeColor=#147EBA;fillColor=#E6F2F8;verticalAlign=top;align=left;spacingLeft=30;fontColor=#147EBA;dashed=0;" vertex="1" parent="1">
          <mxGeometry x="270" y="590" width="690" height="130" as="geometry" />
        </mxCell>
        <mxCell id="_DxccNaKRBvqQ13TV_rj-13" value="" style="outlineConnect=0;dashed=0;verticalLabelPosition=bottom;verticalAlign=top;align=center;html=1;shape=mxgraph.aws3.rds;fillColor=#2E73B8;gradientColor=none;" vertex="1" parent="_DxccNaKRBvqQ13TV_rj-6">
          <mxGeometry x="294.75" y="24.5" width="72" height="81" as="geometry" />
        </mxCell>
        <mxCell id="_DxccNaKRBvqQ13TV_rj-7" value="Public subnet" style="points=[[0,0],[0.25,0],[0.5,0],[0.75,0],[1,0],[1,0.25],[1,0.5],[1,0.75],[1,1],[0.75,1],[0.5,1],[0.25,1],[0,1],[0,0.75],[0,0.5],[0,0.25]];outlineConnect=0;gradientColor=none;html=1;whiteSpace=wrap;fontSize=12;fontStyle=0;container=1;pointerEvents=0;collapsible=0;recursiveResize=0;shape=mxgraph.aws4.group;grIcon=mxgraph.aws4.group_security_group;grStroke=0;strokeColor=#248814;fillColor=#E9F3E6;verticalAlign=top;align=left;spacingLeft=30;fontColor=#248814;dashed=0;" vertex="1" parent="1">
          <mxGeometry x="270" y="455" width="690" height="125" as="geometry" />
        </mxCell>
        <mxCell id="_DxccNaKRBvqQ13TV_rj-11" value="" style="outlineConnect=0;dashed=0;verticalLabelPosition=bottom;verticalAlign=top;align=center;html=1;shape=mxgraph.aws3.ec2;fillColor=#F58534;gradientColor=none;" vertex="1" parent="_DxccNaKRBvqQ13TV_rj-7">
          <mxGeometry x="291.75" y="16" width="76.5" height="93" as="geometry" />
        </mxCell>
        <mxCell id="_DxccNaKRBvqQ13TV_rj-29" value="EC2" style="text;html=1;strokeColor=none;fillColor=none;align=center;verticalAlign=middle;whiteSpace=wrap;rounded=0;" vertex="1" parent="_DxccNaKRBvqQ13TV_rj-7">
          <mxGeometry x="366.5" y="79" width="60" height="30" as="geometry" />
        </mxCell>
        <mxCell id="_DxccNaKRBvqQ13TV_rj-39" style="edgeStyle=orthogonalEdgeStyle;rounded=0;orthogonalLoop=1;jettySize=auto;html=1;exitX=0.5;exitY=1;exitDx=0;exitDy=0;exitPerimeter=0;entryX=0.5;entryY=0;entryDx=0;entryDy=0;entryPerimeter=0;" edge="1" parent="1" source="_DxccNaKRBvqQ13TV_rj-9" target="_DxccNaKRBvqQ13TV_rj-11">
          <mxGeometry relative="1" as="geometry" />
        </mxCell>
        <mxCell id="_DxccNaKRBvqQ13TV_rj-9" value="" style="outlineConnect=0;dashed=0;verticalLabelPosition=bottom;verticalAlign=top;align=center;html=1;shape=mxgraph.aws3.internet_gateway;fillColor=#F58534;gradientColor=none;" vertex="1" parent="1">
          <mxGeometry x="565.5" y="342" width="69" height="72" as="geometry" />
        </mxCell>
        <mxCell id="_DxccNaKRBvqQ13TV_rj-15" value="" style="sketch=0;pointerEvents=1;shadow=0;dashed=0;html=1;strokeColor=none;fillColor=#DF8C42;labelPosition=center;verticalLabelPosition=bottom;verticalAlign=top;align=center;outlineConnect=0;shape=mxgraph.veeam2.aws_s3;" vertex="1" parent="1">
          <mxGeometry x="860" y="242" width="70" height="70" as="geometry" />
        </mxCell>
        <mxCell id="_DxccNaKRBvqQ13TV_rj-21" style="edgeStyle=orthogonalEdgeStyle;rounded=0;orthogonalLoop=1;jettySize=auto;html=1;" edge="1" parent="1" source="_DxccNaKRBvqQ13TV_rj-16" target="_DxccNaKRBvqQ13TV_rj-14">
          <mxGeometry relative="1" as="geometry" />
        </mxCell>
        <mxCell id="_DxccNaKRBvqQ13TV_rj-16" value="" style="outlineConnect=0;dashed=0;verticalLabelPosition=bottom;verticalAlign=top;align=center;html=1;shape=mxgraph.aws3.internet;fillColor=#D2D3D3;gradientColor=none;" vertex="1" parent="1">
          <mxGeometry x="560.25" y="10" width="79.5" height="79.5" as="geometry" />
        </mxCell>
        <mxCell id="_DxccNaKRBvqQ13TV_rj-26" style="edgeStyle=orthogonalEdgeStyle;rounded=0;orthogonalLoop=1;jettySize=auto;html=1;exitX=0.5;exitY=1;exitDx=0;exitDy=0;exitPerimeter=0;entryX=0.5;entryY=0;entryDx=0;entryDy=0;entryPerimeter=0;" edge="1" parent="1" source="_DxccNaKRBvqQ13TV_rj-17" target="_DxccNaKRBvqQ13TV_rj-9">
          <mxGeometry relative="1" as="geometry" />
        </mxCell>
        <mxCell id="_DxccNaKRBvqQ13TV_rj-17" value="" style="outlineConnect=0;dashed=0;verticalLabelPosition=bottom;verticalAlign=top;align=center;html=1;shape=mxgraph.aws3.elastic_load_balancing;fillColor=#F58534;gradientColor=none;" vertex="1" parent="1">
          <mxGeometry x="561.75" y="227" width="76.5" height="93" as="geometry" />
        </mxCell>
        <mxCell id="_DxccNaKRBvqQ13TV_rj-19" value="" style="outlineConnect=0;dashed=0;verticalLabelPosition=bottom;verticalAlign=top;align=center;html=1;shape=mxgraph.aws3.certificate_manager_2;fillColor=#759C3E;gradientColor=none;" vertex="1" parent="1">
          <mxGeometry x="690" y="245.5" width="73.5" height="63" as="geometry" />
        </mxCell>
        <mxCell id="_DxccNaKRBvqQ13TV_rj-22" style="edgeStyle=orthogonalEdgeStyle;rounded=0;orthogonalLoop=1;jettySize=auto;html=1;exitX=0.5;exitY=1;exitDx=0;exitDy=0;exitPerimeter=0;" edge="1" parent="1" source="_DxccNaKRBvqQ13TV_rj-14" target="_DxccNaKRBvqQ13TV_rj-17">
          <mxGeometry relative="1" as="geometry" />
        </mxCell>
        <mxCell id="_DxccNaKRBvqQ13TV_rj-14" value="" style="outlineConnect=0;dashed=0;verticalLabelPosition=bottom;verticalAlign=top;align=center;html=1;shape=mxgraph.aws3.route_53;fillColor=#F58536;gradientColor=none;" vertex="1" parent="1">
          <mxGeometry x="564.75" y="120" width="70.5" height="80" as="geometry" />
        </mxCell>
        <mxCell id="_DxccNaKRBvqQ13TV_rj-27" style="edgeStyle=orthogonalEdgeStyle;rounded=0;orthogonalLoop=1;jettySize=auto;html=1;exitX=1;exitY=0.5;exitDx=0;exitDy=0;exitPerimeter=0;" edge="1" parent="1" source="_DxccNaKRBvqQ13TV_rj-11" target="_DxccNaKRBvqQ13TV_rj-15">
          <mxGeometry relative="1" as="geometry" />
        </mxCell>
        <mxCell id="_DxccNaKRBvqQ13TV_rj-28" value="RDS" style="text;html=1;strokeColor=none;fillColor=none;align=center;verticalAlign=middle;whiteSpace=wrap;rounded=0;" vertex="1" parent="1">
          <mxGeometry x="639.75" y="670" width="60.25" height="30" as="geometry" />
        </mxCell>
        <mxCell id="_DxccNaKRBvqQ13TV_rj-30" value="Internet GateWay" style="text;html=1;strokeColor=none;fillColor=none;align=center;verticalAlign=middle;whiteSpace=wrap;rounded=0;" vertex="1" parent="1">
          <mxGeometry x="500.25" y="390" width="60" height="30" as="geometry" />
        </mxCell>
        <mxCell id="_DxccNaKRBvqQ13TV_rj-31" value="ACM" style="text;html=1;strokeColor=none;fillColor=none;align=center;verticalAlign=middle;whiteSpace=wrap;rounded=0;" vertex="1" parent="1">
          <mxGeometry x="696.75" y="210" width="60" height="30" as="geometry" />
        </mxCell>
        <mxCell id="_DxccNaKRBvqQ13TV_rj-32" value="Route53" style="text;html=1;strokeColor=none;fillColor=none;align=center;verticalAlign=middle;whiteSpace=wrap;rounded=0;" vertex="1" parent="1">
          <mxGeometry x="620" y="110" width="60" height="30" as="geometry" />
        </mxCell>
        <mxCell id="_DxccNaKRBvqQ13TV_rj-33" value="ALB" style="text;html=1;strokeColor=none;fillColor=none;align=center;verticalAlign=middle;whiteSpace=wrap;rounded=0;" vertex="1" parent="1">
          <mxGeometry x="490" y="262" width="60" height="30" as="geometry" />
        </mxCell>
        <mxCell id="_DxccNaKRBvqQ13TV_rj-34" value="S3" style="text;html=1;strokeColor=none;fillColor=none;align=center;verticalAlign=middle;whiteSpace=wrap;rounded=0;" vertex="1" parent="1">
          <mxGeometry x="865" y="210" width="60" height="30" as="geometry" />
        </mxCell>
        <mxCell id="_DxccNaKRBvqQ13TV_rj-35" value="Internet" style="text;html=1;strokeColor=none;fillColor=none;align=center;verticalAlign=middle;whiteSpace=wrap;rounded=0;" vertex="1" parent="1">
          <mxGeometry x="639.75" y="34.75" width="60" height="30" as="geometry" />
        </mxCell>
        <mxCell id="_DxccNaKRBvqQ13TV_rj-38" style="edgeStyle=orthogonalEdgeStyle;rounded=0;orthogonalLoop=1;jettySize=auto;html=1;exitX=0.5;exitY=1;exitDx=0;exitDy=0;exitPerimeter=0;entryX=0.5;entryY=0;entryDx=0;entryDy=0;entryPerimeter=0;" edge="1" parent="1" source="_DxccNaKRBvqQ13TV_rj-11" target="_DxccNaKRBvqQ13TV_rj-13">
          <mxGeometry relative="1" as="geometry" />
        </mxCell>
      </root>
    </mxGraphModel>
  </diagram>
</mxfile>
